{
  "extensionsUsed": [
    "KHR_gaussian_splatting"
  ],
  "accessors": [
    {
      "bufferView": 0,
      "byteOffset": 0,
      "componentType": 5126,
      "count": 21,
      "type": "VEC3",
      "max": [
        250,
        250,
        0
      ],
      "min": [
        0,
        0,
        0
      ]
    },
    {
      "bufferView": 0,
      "byteOffset": 336,
      "componentType": 5126,
      "count": 21,
      "type": "VEC3",
      "max": [
        3,
        3,
        3
      ],
      "min": [
        1,
        1,
        1
      ]
    },
    {
      "bufferView": 0,
      "byteOffset": 672,
      "componentType": 5126,
      "count": 21,
      "type": "VEC4",
      "max": [
        0.70710677,
        0.70710677,
        0.70710677,
        1
      ],
      "min": [
        0,
        0,
        0,
        0.70710677
      ]
    },
    {
      "bufferView": 0,
      "byteOffset": 1008,
      "componentType": 5126,
      "count": 21,
      "type": "SCALAR",
      "max": [
        20
      ],
      "min": [
        20
      ]
    },
    {
      "bufferView": 0,
      "byteOffset": 1344,
      "componentType": 5126,
      "count": 21,
      "type": "VEC3",
      "max": [
        1.7724539,
        1.7724539,
        1.7724539
      ],
      "min": [
        -1.7724539,
        -1.7724539,
        -1.7724539
      ]
    }
  ],
  "asset": {
    "generator": "JglTF from https://github.com/javagl/JglTF",
    "version": "2.0"
  },
  "buffers": [
    {
      "uri": "rotations2D_GLTF_data.bin",
      "byteLength": 1680
    }
  ],
  "bufferViews": [
    {
      "buffer": 0,
      "byteOffset": 0,
      "byteLength": 1680,
      "byteStride": 16,
      "target": 34962
    }
  ],
  "meshes": [
    {
      "primitives": [
        {
          "extensions": {
            "KHR_gaussian_splatting": {
              "kernel": "ellipse",
              "colorSpace": "BT.709-sRGB",
              "sortingMethod": "cameraDistance",
              "projection": "perspective"
            }
          },
          "attributes": {
            "POSITION": 0,
            "KHR_gaussian_splatting:SCALE": 1,
            "KHR_gaussian_splatting:ROTATION": 2,
            "KHR_gaussian_splatting:OPACITY": 3,
            "KHR_gaussian_splatting:SH_DEGREE_0_COEF_0": 4
          },
          "mode": 0
        }
      ]
    }
  ],
  "nodes": [
    {
      "mesh": 0
    }
  ],
  "scene": 0,
  "scenes": [
    {
      "nodes": [
        0
      ]
    }
  ]
}